<svg width="530" height="530" viewBox="0 0 530 530" fill="none" xmlns="http://www.w3.org/2000/svg">
<circle cx="265" cy="265" r="265" fill="#00ED09"/>
<path d="M394.345 160.048H135.651C124.651 160.048 115.715 168.98 115.715 179.992V349.104C115.715 360.134 124.642 369.047 135.651 369.047H394.345C405.347 369.047 414.284 360.115 414.284 349.104V179.992C414.284 168.96 405.357 160.048 394.345 160.048ZM359.468 231.444L270.301 282.926C268.921 284.102 267.152 284.725 265.359 284.696C263.566 284.725 261.797 284.102 260.417 282.926L171.249 231.444C167.675 229.384 166.436 224.845 168.511 221.249C170.574 217.682 175.117 216.438 178.714 218.518L265.359 268.542L352.004 218.518C355.6 216.438 360.144 217.682 362.204 221.249C364.284 224.845 363.04 229.384 359.468 231.444Z" fill="white"/>
</svg>
