<svg width="200" height="200" viewBox="0 0 200 200" fill="none" xmlns="http://www.w3.org/2000/svg">
<g clip-path="url(#clip0_180_101)">
<path d="M198.006 59.9999C198.006 59.9999 196.05 46.2124 190.037 40.1562C182.418 32.1874 173.906 32.1499 170 31.6812C142.031 29.6499 100.037 29.6499 100.037 29.6499H99.9621C99.9621 29.6499 57.9684 29.6499 29.9996 31.6812C26.0934 32.1499 17.5809 32.1874 9.96211 40.1562C3.94336 46.2124 2.03086 59.9999 2.03086 59.9999C2.03086 59.9999 0.0371094 76.1749 0.0371094 92.3812V107.537C0.0371094 123.706 2.03086 139.919 2.03086 139.919C2.03086 139.919 3.98711 153.706 9.96211 159.762C17.5809 167.731 27.5809 167.456 32.0309 168.319C48.0496 169.844 100.037 170.312 100.037 170.312C100.037 170.312 142.068 170.237 170.037 168.244C173.943 167.775 182.462 167.737 190.075 159.769C196.087 153.712 198.043 139.925 198.043 139.925C198.043 139.925 200.037 123.756 200.037 107.544V92.3874C200 76.2124 198.006 60.0062 198.006 60.0062V59.9999ZM79.3371 125.937V69.7249L133.362 97.9311L79.3371 125.937Z" fill="white"/>
</g>
<defs>
<clipPath id="clip0_180_101">
<rect width="200" height="200" fill="white"/>
</clipPath>
</defs>
</svg>
